<svg width="22" height="22" viewBox="0 0 22 22" fill="none" xmlns="http://www.w3.org/2000/svg">
<path d="M11 1C12.9401 0.999647 14.8385 1.56368 16.4637 2.62336C18.0889 3.68303 19.3707 5.19259 20.153 6.96804C20.9352 8.74349 21.1841 10.7082 20.8693 12.6226C20.5545 14.537 19.6896 16.3185 18.38 17.75" stroke="#34CE5F" stroke-width="2" stroke-linecap="round" stroke-linejoin="round"/>
<path d="M11 7V15" stroke="#34CE5F" stroke-width="2" stroke-linecap="round" stroke-linejoin="round"/>
<path d="M15 11H7" stroke="#34CE5F" stroke-width="2" stroke-linecap="round" stroke-linejoin="round"/>
<path d="M1.5 7.875C1.18135 8.84366 1.01273 9.85536 1 10.875" stroke="#34CE5F" stroke-width="2" stroke-linecap="round" stroke-linejoin="round"/>
<path d="M1.83002 15C2.39152 16.2918 3.2196 17.4505 4.26002 18.4" stroke="#34CE5F" stroke-width="2" stroke-linecap="round" stroke-linejoin="round"/>
<path d="M3.63599 4.23493C3.91503 3.93116 4.2126 3.64495 4.52699 3.37793" stroke="#34CE5F" stroke-width="2" stroke-linecap="round" stroke-linejoin="round"/>
<path d="M7.64398 20.42C10.1377 21.3084 12.8819 21.1718 15.275 20.04" stroke="#34CE5F" stroke-width="2" stroke-linecap="round" stroke-linejoin="round"/>
</svg>
