<svg width="39" height="37" viewBox="0 0 39 37" fill="none" xmlns="http://www.w3.org/2000/svg">
<g clip-path="url(#clip0_39_380)">
<path d="M17.875 31.2187L10.8938 31.2187C9.21359 31.2187 8.37351 31.2187 7.73178 30.8918C7.16729 30.6041 6.70835 30.1452 6.42073 29.5807C6.09375 28.939 6.09375 28.0989 6.09375 26.4187L6.09375 10.5812C6.09375 8.90109 6.09375 8.06101 6.42073 7.41928C6.70835 6.85479 7.16729 6.39585 7.73178 6.10823C8.37351 5.78125 9.21359 5.78125 10.8938 5.78125L28.1062 5.78125C29.7864 5.78125 30.6265 5.78125 31.2682 6.10823C31.8327 6.39585 32.2916 6.85479 32.5793 7.41928C32.9062 8.06101 32.9062 8.90109 32.9062 10.5813L32.9062 16.9583" stroke="#F2F2F2" stroke-width="2" stroke-linecap="round"/>
<path d="M22.3437 13.4896L12.5938 13.4896" stroke="#A118FE" stroke-width="1.5" stroke-linecap="round" stroke-linejoin="round"/>
<path d="M17.4687 18.1146L12.5938 18.1146" stroke="#A118FE" stroke-width="1.5" stroke-linecap="round" stroke-linejoin="round"/>
<path d="M28.7265 28.6514L27.4168 32.9286C27.1124 33.923 26.9601 34.4202 26.7284 34.5496C26.5282 34.6615 26.2843 34.6615 26.0841 34.5496C25.8524 34.4202 25.7001 33.923 25.3957 32.9286L24.086 28.6514C23.9649 28.2557 23.9043 28.0579 23.794 27.8962C23.6964 27.7531 23.5709 27.6311 23.4251 27.5376C23.2604 27.4319 23.0609 27.3769 22.6621 27.267L22.6621 27.267L18.3222 26.071C17.2231 25.7681 16.6736 25.6166 16.5382 25.3807C16.4215 25.1772 16.4215 24.927 16.5382 24.7234C16.6736 24.4875 17.2231 24.3361 18.3222 24.0332L22.6621 22.8372C23.0609 22.7272 23.2604 22.6723 23.4251 22.5666C23.5709 22.473 23.6964 22.3511 23.794 22.2079C23.9043 22.0462 23.9649 21.8484 24.086 21.4528L25.3957 17.1755C25.7001 16.1812 25.8524 15.684 26.0841 15.5545C26.2843 15.4427 26.5282 15.4427 26.7284 15.5545C26.9601 15.684 27.1124 16.1812 27.4168 17.1755L28.7265 21.4528C28.8476 21.8484 28.9082 22.0462 29.0185 22.2079C29.1161 22.3511 29.2416 22.473 29.3874 22.5666C29.5521 22.6723 29.7516 22.7272 30.1504 22.8372L30.1504 22.8372L34.4903 24.0332C35.5894 24.3361 36.1389 24.4875 36.2743 24.7234C36.391 24.927 36.391 25.1772 36.2743 25.3807C36.1389 25.6166 35.5894 25.7681 34.4903 26.071L34.4903 26.071L30.1504 27.267C29.7516 27.3769 29.5521 27.4319 29.3874 27.5376C29.2416 27.6311 29.1161 27.7531 29.0185 27.8962C28.9082 28.0579 28.8476 28.2557 28.7265 28.6514Z" stroke="#F2F2F2" stroke-width="2"/>
</g>
<defs>
<clipPath id="clip0_39_380">
<rect width="37" height="39" fill="white" transform="matrix(1.19249e-08 1 1 -1.19249e-08 0 0)"/>
</clipPath>
</defs>
</svg>
