<svg width="30" height="30" viewBox="0 0 30 30" fill="none" xmlns="http://www.w3.org/2000/svg">
<path d="M7.9375 11.5621L7.9375 23.8955" stroke="#FF4259" stroke-width="1.5" stroke-linecap="round" stroke-linejoin="round"/>
<path d="M13.7188 14.6455L13.7187 23.8955" stroke="#FF4259" stroke-width="1.5" stroke-linecap="round" stroke-linejoin="round"/>
<path d="M19.5 19.2708L19.5 23.8954" stroke="#FF4259" stroke-width="1.5" stroke-linecap="round" stroke-linejoin="round"/>
<path d="M26.4375 14.5977V25.8125C26.4375 27.5211 25.0524 28.9062 23.3437 28.9062H4.09375C2.38512 28.9062 1 27.5211 1 25.8125V6.5625C1 4.85387 2.38512 3.46875 4.09375 3.46875H15.3086" stroke="#F2F2F2" stroke-width="2" stroke-linecap="round" stroke-linejoin="round"/>
<path d="M23.6019 10.734L22.2346 14.9011C22.1008 15.3088 21.5242 15.3088 21.3904 14.9011L20.0231 10.734C19.8909 10.3312 19.575 10.0153 19.1723 9.88319L15.0051 8.51584C14.5975 8.38208 14.5975 7.80542 15.0051 7.67166L19.1723 6.30431C19.575 6.17216 19.8909 5.85629 20.0231 5.45354L21.3904 1.28637C21.5242 0.878723 22.1008 0.878722 22.2346 1.28637L23.6019 5.45354C23.7341 5.85629 24.05 6.17216 24.4527 6.30431L28.6199 7.67166C29.0275 7.80542 29.0275 8.38208 28.6199 8.51584L24.4527 9.88319C24.05 10.0153 23.7341 10.3312 23.6019 10.734Z" fill="#FF4259"/>
</svg>
