<svg width="211" height="115" viewBox="30 10 201 105" fill="none"
    xmlns="http://www.w3.org/2000/svg">
    <rect width="82.9551" height="22.9311" rx="11.4655" transform="matrix(0.928371 -0.371655 0.639873 0.768481 0 96.1917)" fill="#D9D9D9"/>
    <rect width="82.9551" height="22.9311" rx="11.4655" transform="matrix(0.928371 -0.371655 0.639873 0.768481 0 96.1917)" fill="#545454"/>
    <path d="M38.1031 98.6168L33.1057 92.615L35.9957 91.458C37.5378 90.8407 39.0921 91.154 40.0142 92.2614C40.5984 92.963 40.4801 93.7204 39.9469 94.1593C40.6811 93.9781 41.3334 94.1565 41.9258 94.7534L43.5768 96.4256L42.4637 96.8712L40.9316 95.3092C40.4825 94.8353 39.9727 94.7463 39.1762 95.0652L37.2563 95.8338L39.206 98.1753L38.1031 98.6168ZM38.3671 94.2733C39.1942 93.9421 39.4194 93.3786 38.8915 92.7446C38.3566 92.1021 37.5504 91.9515 36.6211 92.3235L34.9054 93.0104L36.5595 94.9969L38.3671 94.2733ZM44.5335 96.0426L39.5361 90.0407L41.0475 89.4357L47.3058 93.5013L45.357 87.7104L46.8684 87.1054L51.8658 93.1072L50.7629 93.5487L47.1028 89.153L48.8054 94.3211L47.5799 94.8117L41.9764 91.2053L45.6364 95.601L44.5335 96.0426ZM52.8588 92.7097L47.8614 86.7079L48.9643 86.2663L53.9617 92.2682L52.8588 92.7097ZM56.8239 91.1224L52.5233 85.9574L50.297 86.8486L49.6002 86.0118L55.1556 83.7878L55.8524 84.6247L53.6262 85.5159L57.9268 90.6808L56.8239 91.1224Z" fill="#181818"/>
    <rect width="82.9551" height="22.9311" rx="11.4655" transform="matrix(0.928371 -0.371655 0.639873 0.768481 81.634 63.5111)" fill="#545454"/>
    <rect width="82.9551" height="22.9311" rx="11.4655" transform="matrix(0.928371 -0.371655 0.639873 0.768481 81.634 63.5111)" fill="#545454"/>
    <path d="M114.013 68.4083C112.277 69.1033 110.498 68.6997 109.347 67.5146L110.432 67.0017C111.261 67.7854 112.261 68.005 113.344 67.5717C114.283 67.1956 114.578 66.683 114.106 66.1166C113.684 65.6095 113.107 65.4234 111.236 65.744C109.212 66.0924 108.234 65.9317 107.452 64.9934C106.594 63.9621 106.952 62.8718 108.515 62.2463C110.179 61.5799 111.801 62.0238 112.908 63.0911L111.827 63.5915C111.137 62.9433 110.185 62.6823 109.184 63.0829C108.347 63.4181 108.121 63.9817 108.558 64.5058C108.994 65.0299 109.513 65.0812 111.155 64.796C113.347 64.4032 114.466 64.733 115.198 65.6121C116.092 66.6857 115.575 67.7828 114.013 68.4083ZM119.716 66.0801C118.143 66.7097 116.358 66.1846 115.175 64.7645C113.993 63.3443 114.23 62.0097 115.802 61.3801C117.12 60.8527 118.542 61.0724 119.581 62.0427L118.5 62.5431C117.902 62.0048 117.134 61.8839 116.45 62.1578C115.531 62.5258 115.475 63.3257 116.299 64.3147C117.122 65.3038 118.149 65.6704 119.068 65.3024C119.752 65.0285 119.985 64.507 119.556 63.8111L120.721 63.4121C121.406 64.5129 121.043 65.5487 119.716 66.0801ZM122.478 64.839L118.734 60.3418L119.816 59.9085L123.561 64.4056L122.478 64.839ZM118.171 59.6991L117.425 58.8031L118.559 58.3493L119.305 59.2453L118.171 59.6991ZM126.912 63.1993C125.339 63.8289 123.564 63.2997 122.382 61.8796C121.199 60.4594 121.426 59.1289 122.968 58.5116C124.449 57.9188 126.185 58.3847 127.444 59.8979L127.634 60.1261L123.733 61.6878C124.517 62.5465 125.424 62.7694 126.282 62.426C126.925 62.1684 127.136 61.7347 126.957 61.2425L128.13 60.852C128.541 61.8033 128.117 62.7169 126.912 63.1993ZM125.917 59.9118C125.195 59.1417 124.347 58.9739 123.601 59.2724C122.835 59.579 122.659 60.2017 123.17 61.0116L125.917 59.9118ZM129.934 61.8543L126.189 57.3571L127.18 56.9606L127.858 57.726C127.637 57.0029 128.035 56.483 128.77 56.1887C129.986 55.7022 131.214 56.1798 132.03 57.1604L134.437 60.0514L133.355 60.4847L131.173 57.8642C130.511 57.0696 129.856 56.7571 129.101 57.0596C128.335 57.3662 128.173 58.0058 128.834 58.8004L131.016 61.4209L129.934 61.8543ZM137.669 58.8931C136.096 59.5226 134.311 58.9975 133.128 57.5774C131.946 56.1572 132.183 54.8226 133.755 54.193C135.073 53.6657 136.495 53.8854 137.534 54.8556L136.453 55.356C135.855 54.8177 135.087 54.6968 134.403 54.9707C133.484 55.3387 133.428 56.1386 134.252 57.1277C135.075 58.1167 136.102 58.4833 137.021 58.1154C137.705 57.8415 137.938 57.3199 137.509 56.624L138.674 56.225C139.359 57.3258 138.996 58.3616 137.669 58.8931ZM142.892 56.8019C141.32 57.4315 139.545 56.9023 138.362 55.4822C137.18 54.062 137.406 52.7315 138.948 52.1142C140.429 51.5214 142.165 51.9874 143.425 53.5005L143.615 53.7287L139.714 55.2904C140.497 56.1491 141.404 56.372 142.262 56.0286C142.905 55.7711 143.116 55.3373 142.938 54.8451L144.11 54.4546C144.521 55.4059 144.097 56.3195 142.892 56.8019ZM141.898 53.5144C141.175 52.7444 140.327 52.5765 139.582 52.875C138.816 53.1816 138.64 53.8043 139.151 54.6142L141.898 53.5144Z" fill="#181818"/>
    <rect width="82.9551" height="22.9311" rx="11.4655" transform="matrix(0.928371 -0.371655 0.639873 0.768481 123.85 102.859)" fill="#545454"/>
    <rect width="82.9551" height="22.9311" rx="11.4655" transform="matrix(0.928371 -0.371655 0.639873 0.768481 123.85 102.859)" fill="#545454"/>
    <path d="M161.62 105.598C159.884 106.293 158.105 105.89 156.954 104.704L158.039 104.191C158.868 104.975 159.868 105.195 160.951 104.761C161.89 104.385 162.185 103.873 161.713 103.306C161.291 102.799 160.714 102.613 158.843 102.934C156.819 103.282 155.841 103.122 155.059 102.183C154.201 101.152 154.559 100.062 156.121 99.4361C157.786 98.7698 159.408 99.2136 160.515 100.281L159.434 100.781C158.744 100.133 157.792 99.8721 156.791 100.273C155.953 100.608 155.728 101.172 156.165 101.696C156.601 102.22 157.12 102.271 158.762 101.986C160.954 101.593 162.073 101.923 162.805 102.802C163.699 103.876 163.182 104.973 161.62 105.598ZM166.685 103.39C165.654 103.803 164.864 103.623 164.161 102.778L162.042 100.233L161.215 100.564L160.602 99.8289L161.43 99.4977L160.55 98.4411L161.632 98.0077L162.512 99.0644L163.952 98.488L164.564 99.2234L163.124 99.7998L165.187 102.277C165.539 102.699 165.859 102.74 166.308 102.56L167.084 102.25L167.696 102.985L166.685 103.39ZM170.172 102.129C169.069 102.571 167.857 102.211 166.963 101.137L164.556 98.2463L165.638 97.813L167.855 100.476C168.538 101.296 169.178 101.524 169.872 101.246C170.658 100.932 170.762 100.304 170.122 99.5346L167.926 96.8972L169.008 96.4638L172.753 100.961L171.742 101.366L171.119 100.634C171.291 101.298 170.958 101.815 170.172 102.129ZM175.679 99.9248C174.28 100.485 172.648 99.932 171.445 98.4865C170.248 97.0494 170.366 95.7849 171.765 95.2248C172.511 94.9264 173.359 94.9475 174.032 95.298L172.251 93.1593L173.334 92.7259L178.331 98.7278L177.33 99.1284L176.737 98.4644C176.838 99.0773 176.434 99.6223 175.679 99.9248ZM175.317 99.0327C176.195 98.6811 176.2 97.9016 175.376 96.9125C174.546 95.915 173.577 95.5365 172.699 95.888C171.821 96.2396 171.752 97.0562 172.568 98.0368C173.37 99.0005 174.449 99.3802 175.317 99.0327ZM180.738 99.4548L180.126 98.7193L180.779 98.4577C181.147 98.3105 181.22 98.1687 181.146 97.9165L181.01 97.4751L180.673 97.61L175.08 94.033L176.224 93.5752L180.657 96.5117L179.144 92.4059L180.288 91.948L182.304 97.836C182.509 98.4416 182.311 98.8252 181.555 99.1277L180.738 99.4548Z" fill="#181818"/>
    <rect width="82.9551" height="22.9311" rx="11.4655" transform="matrix(0.928371 -0.371655 0.639873 0.768481 66.8501 96.0282)" fill="#545454"/>
    <rect width="82.9551" height="22.9311" rx="11.4655" transform="matrix(0.928371 -0.371655 0.639873 0.768481 66.8501 96.0282)" fill="#545454"/>
    <path d="M104.953 98.4535L99.9557 92.4517L102.284 91.5196C104.551 90.612 106.729 91.183 108.333 93.1103C109.931 95.0292 109.579 96.6016 107.343 97.4969L104.953 98.4535ZM106.585 96.6845C108.188 96.0427 108.393 95.0137 107.19 93.5682C105.972 92.1058 104.584 91.7146 102.981 92.3564L101.755 92.847L105.359 97.1751L106.585 96.6845ZM113.177 95.2965C112.054 95.7462 110.945 95.5926 110.298 94.8149C109.657 94.0456 109.864 93.4106 110.886 92.742L112.509 91.698C111.932 91.0048 111.255 90.8136 110.479 91.1243C109.785 91.4023 109.615 91.8197 109.88 92.3672L108.707 92.7577C108.166 91.7799 108.549 90.8827 109.846 90.3635C111.316 89.7748 112.662 90.1488 113.634 91.3153L115.091 93.0652C115.274 93.285 115.422 93.3158 115.626 93.234L115.82 93.1563L116.411 93.8664C116.354 93.9119 116.187 93.9899 116.034 94.0512C115.411 94.3006 114.882 94.2533 114.353 93.766C114.472 94.3498 114.025 94.9572 113.177 95.2965ZM112.769 94.5129C113.74 94.1245 113.91 93.3802 113.311 92.6616L113.072 92.3742L111.7 93.2615C111.131 93.6246 111.062 93.934 111.351 94.2806C111.674 94.6695 112.187 94.7459 112.769 94.5129ZM118.608 92.987C117.577 93.3999 116.787 93.2201 116.083 92.3748L113.965 89.8304L113.137 90.1615L112.525 89.4261L113.352 89.0949L112.472 88.0383L113.555 87.6049L114.435 88.6616L115.875 88.0851L116.487 88.8206L115.047 89.397L117.109 91.8738C117.461 92.2965 117.781 92.3374 118.231 92.1575L119.007 91.8468L119.619 92.5823L118.608 92.987ZM121.849 91.8247C120.726 92.2745 119.618 92.1208 118.97 91.3431C118.329 90.5738 118.536 89.9389 119.559 89.2702L121.181 88.2262C120.604 87.533 119.927 87.3418 119.151 87.6525C118.457 87.9305 118.287 88.3479 118.552 88.8954L117.38 89.2859C116.838 88.3081 117.221 87.4109 118.518 86.8917C119.988 86.303 121.335 86.677 122.306 87.8436L123.763 89.5934C123.946 89.8132 124.094 89.844 124.298 89.7622L124.492 89.6846L125.084 90.3946C125.026 90.4402 124.86 90.5181 124.707 90.5794C124.084 90.8288 123.554 90.7816 123.026 90.2943C123.144 90.878 122.697 91.4854 121.849 91.8247ZM121.442 91.0411C122.412 90.6527 122.582 89.9084 121.984 89.1899L121.744 88.9025L120.373 89.7897C119.803 90.1528 119.734 90.4623 120.023 90.8088C120.347 91.1977 120.86 91.2741 121.442 91.0411Z" fill="#181818"/>
    <rect width="82.9551" height="22.9311" rx="11.4655" transform="matrix(0.928371 -0.371655 0.639873 0.768481 163.268 30.8306)" fill="#545454"/>
    <rect width="82.9551" height="22.9311" rx="11.4655" transform="matrix(0.928371 -0.371655 0.639873 0.768481 163.268 30.8306)" fill="#545454"/>
    <path d="M192.129 36.9555L187.132 30.9536L189.736 29.9111C191.472 29.2161 192.786 29.3551 193.722 30.4794C194.292 31.1641 194.2 31.8547 193.427 32.2996C194.563 31.9799 195.633 32.2841 196.302 33.0872C197.217 34.1861 196.755 35.1035 195.121 35.7576L192.129 36.9555ZM194.408 34.9499C195.317 34.5861 195.598 34.0566 195.098 33.4564C194.605 32.8647 193.782 32.7432 192.874 33.1071L191.015 33.8512L192.549 35.694L194.408 34.9499ZM191.848 32.4807C192.818 32.0923 193.109 31.5587 192.645 31.0008C192.152 30.4091 191.399 30.3386 190.398 30.7393L188.917 31.3321L190.367 33.0734L191.848 32.4807ZM200.269 33.8321C199.166 34.2736 197.954 33.9135 197.06 32.84L194.653 29.949L195.735 29.5156L197.953 32.1784C198.635 32.9984 199.275 33.2269 199.969 32.9489C200.756 32.6342 200.859 32.0065 200.219 31.2373L198.023 28.5999L199.105 28.1665L202.85 32.6636L201.839 33.0684L201.216 32.337C201.388 33.001 201.055 33.5173 200.269 33.8321ZM205.939 31.5621C204.408 32.1753 203.053 31.8725 202.232 31.0176L203.32 30.5256C203.827 30.9875 204.476 31.145 205.313 30.8097C205.987 30.5399 206.275 30.1991 205.944 29.8018C205.67 29.4722 205.346 29.4102 204.127 29.6955C202.316 30.1047 201.492 29.9162 200.879 29.1808C200.197 28.3608 200.484 27.4794 201.893 26.9152C203.282 26.3592 204.566 26.7242 205.402 27.4828L204.331 27.9792C203.842 27.5551 203.183 27.4018 202.509 27.6716C201.805 27.9537 201.679 28.3422 201.975 28.6973C202.305 29.0946 202.766 29.1244 203.753 28.887C205.628 28.4407 206.448 28.6082 207.061 29.3437C207.764 30.189 207.236 31.0429 205.939 31.5621ZM208.606 30.3595L204.861 25.8624L205.944 25.429L209.688 29.9262L208.606 30.3595ZM204.299 25.2196L203.553 24.3236L204.686 23.8698L205.432 24.7658L204.299 25.2196ZM210.568 29.5738L206.824 25.0767L207.814 24.6801L208.492 25.4455C208.272 24.7224 208.669 24.2025 209.405 23.9082C210.62 23.4217 211.848 23.8993 212.665 24.8799L215.072 27.7709L213.989 28.2043L211.807 25.5837C211.146 24.7891 210.491 24.4766 209.735 24.7791C208.969 25.0857 208.807 25.7253 209.469 26.5199L211.651 29.1405L210.568 29.5738ZM218.293 26.6167C216.72 27.2462 214.945 26.717 213.763 25.2969C212.58 23.8767 212.807 22.5462 214.349 21.9289C215.829 21.3361 217.565 21.8021 218.825 23.3152L219.015 23.5434L215.114 25.1051C215.897 25.9638 216.805 26.1867 217.663 25.8433C218.306 25.5858 218.517 25.152 218.338 24.6598L219.511 24.2693C219.922 25.2207 219.498 26.1343 218.293 26.6167ZM217.298 23.3291C216.575 22.5591 215.728 22.3913 214.982 22.6897C214.216 22.9963 214.04 23.619 214.551 24.4289L217.298 23.3291ZM223.523 24.5227C221.992 25.1359 220.637 24.8331 219.816 23.9782L220.904 23.4862C221.411 23.9482 222.06 24.1056 222.897 23.7704C223.571 23.5005 223.859 23.1598 223.528 22.7625C223.254 22.4328 222.93 22.3708 221.71 22.6561C219.9 23.0654 219.076 22.8768 218.463 22.1414C217.781 21.3214 218.068 20.44 219.477 19.8758C220.866 19.3198 222.15 19.6848 222.986 20.4435L221.915 20.9398C221.426 20.5158 220.767 20.3624 220.093 20.6323C219.389 20.9143 219.263 21.3028 219.559 21.6579C219.889 22.0552 220.35 22.085 221.337 21.8477C223.212 21.4013 224.032 21.5689 224.645 22.3043C225.348 23.1496 224.82 24.0035 223.523 24.5227ZM228.518 22.5233C226.986 23.1365 225.631 22.8337 224.81 21.9788L225.898 21.4868C226.405 21.9488 227.054 22.1062 227.891 21.771C228.565 21.5012 228.853 21.1604 228.523 20.7631C228.248 20.4334 227.924 20.3715 226.705 20.6567C224.894 21.066 224.07 20.8775 223.458 20.142C222.775 19.322 223.062 18.4406 224.472 17.8764C225.86 17.3204 227.145 17.6854 227.981 18.4441L226.91 18.9404C226.42 18.5164 225.762 18.363 225.088 18.6329C224.383 18.915 224.257 19.3035 224.553 19.6585C224.884 20.0558 225.344 20.0856 226.331 19.8483C228.206 19.402 229.027 19.5695 229.639 20.3049C230.343 21.1503 229.815 22.0041 228.518 22.5233Z" fill="#181818"/>
    <rect width="82.9551" height="22.9311" rx="11.4655" transform="matrix(0.928371 -0.371655 0.639873 0.768481 148.484 63.3478)" fill="#545454"/>
    <rect width="82.9551" height="22.9311" rx="11.4655" transform="matrix(0.928371 -0.371655 0.639873 0.768481 148.484 63.3478)" fill="#545454"/>
    <path d="M171.184 71.9391L166.187 65.9373L168.791 64.8948C170.527 64.1998 171.841 64.3388 172.777 65.4631C173.347 66.1478 173.255 66.8384 172.482 67.2832C173.618 66.9636 174.688 67.2678 175.357 68.0708C176.272 69.1697 175.81 70.0871 174.177 70.7413L171.184 71.9391ZM173.463 69.9336C174.372 69.5697 174.653 69.0403 174.153 68.4401C173.66 67.8483 172.838 67.7269 171.929 68.0907L170.07 68.8348L171.605 70.6776L173.463 69.9336ZM170.903 67.4643C171.874 67.0759 172.165 66.5424 171.7 65.9845C171.207 65.3927 170.454 65.3223 169.453 65.7229L167.973 66.3157L169.423 68.0571L170.903 67.4643ZM177.592 69.3739L173.848 64.8767L174.93 64.4434L178.675 68.9405L177.592 69.3739ZM173.285 64.234L172.539 63.3379L173.673 62.8841L174.419 63.7802L173.285 64.234ZM182.036 67.7301C180.474 68.3556 178.685 67.843 177.496 66.4144C176.306 64.9858 176.56 63.6556 178.123 63.0301C179.675 62.4087 181.463 62.9213 182.653 64.3499C183.842 65.7785 183.588 67.1087 182.036 67.7301ZM181.389 66.9524C182.308 66.5845 182.353 65.7886 181.529 64.7996C180.706 63.8105 179.689 63.4398 178.77 63.8078C177.851 64.1757 177.796 64.9757 178.619 65.9647C179.443 66.9537 180.469 67.3203 181.389 66.9524ZM185.168 66.3412L181.423 61.8441L182.414 61.4475L183.082 62.2171C182.89 61.5613 183.177 61.0068 183.861 60.7329C184.668 60.4099 185.518 60.5316 186.238 61.0209C185.984 60.3226 186.261 59.7721 187.037 59.4614C188.181 59.0036 189.341 59.3506 190.256 60.4495L192.663 63.3405L191.581 63.7739L189.357 61.1026C188.709 60.3249 188.041 60.0625 187.347 60.3405C186.663 60.6144 186.596 61.2382 187.23 61.999L189.426 64.6365L188.395 65.0494L186.199 62.4119C185.565 61.6511 184.906 61.3176 184.181 61.6079C183.487 61.8859 183.428 62.5181 184.054 63.2705L186.25 65.9079L185.168 66.3412ZM195.894 62.1824C194.321 62.812 192.546 62.2828 191.364 60.8626C190.181 59.4425 190.408 58.1119 191.95 57.4946C193.431 56.9018 195.167 57.3678 196.426 58.8809L196.617 59.1092L192.716 60.6709C193.499 61.5296 194.406 61.7525 195.264 61.4091C195.907 61.1515 196.118 60.7177 195.939 60.2256L197.112 59.8351C197.523 60.7864 197.099 61.7 195.894 62.1824ZM194.899 58.8949C194.177 58.1248 193.329 57.957 192.583 58.2554C191.817 58.562 191.642 59.1848 192.152 59.9946L194.899 58.8949ZM200.961 60.1538C199.562 60.7139 197.931 60.161 196.727 58.7155C195.531 57.2784 195.649 56.0139 197.048 55.4538C197.793 55.1554 198.641 55.1765 199.314 55.527L197.534 53.3883L198.616 52.9549L203.614 58.9568L202.613 59.3574L202.019 58.6934C202.121 59.3064 201.717 59.8513 200.961 60.1538ZM200.6 59.2617C201.478 58.9101 201.482 58.1306 200.659 57.1415C199.828 56.1441 198.859 55.7655 197.981 56.1171C197.103 56.4686 197.034 57.2852 197.85 58.2658C198.653 59.2295 199.732 59.6092 200.6 59.2617ZM204.399 58.6423L200.654 54.1452L201.737 53.7118L205.481 58.209L204.399 58.6423ZM200.092 53.5025L199.346 52.6064L200.479 52.1526L201.226 53.0487L200.092 53.5025ZM208.843 56.9986C207.27 57.6282 205.485 57.103 204.302 55.6829C203.12 54.2627 203.357 52.9281 204.929 52.2986C206.247 51.7712 207.669 51.9909 208.708 52.9611L207.627 53.4616C207.029 52.9233 206.261 52.8024 205.577 53.0763C204.658 53.4442 204.602 54.2442 205.426 55.2332C206.249 56.2222 207.276 56.5888 208.195 56.2209C208.879 55.947 209.112 55.4254 208.683 54.7296L209.848 54.3306C210.533 55.4314 210.17 56.4671 208.843 56.9986ZM213.391 55.1777C212.268 55.6274 211.16 55.4737 210.512 54.696C209.872 53.9268 210.078 53.2918 211.101 52.6231L212.723 51.5791C212.146 50.8859 211.47 50.6947 210.693 51.0054C209.999 51.2834 209.829 51.7008 210.094 52.2483L208.922 52.6389C208.38 51.6611 208.763 50.7638 210.06 50.2446C211.53 49.6559 212.877 50.0299 213.848 51.1965L215.305 52.9463C215.488 53.1661 215.636 53.1969 215.841 53.1152L216.035 53.0375L216.626 53.7476C216.568 53.7931 216.402 53.8711 216.249 53.9324C215.626 54.1818 215.096 54.1345 214.568 53.6472C214.686 54.231 214.239 54.8384 213.391 55.1777ZM212.984 54.394C213.954 54.0056 214.124 53.2613 213.526 52.5428L213.286 52.2554L211.915 53.1427C211.346 53.5057 211.276 53.8152 211.565 54.1618C211.889 54.5506 212.402 54.627 212.984 54.394ZM218.313 53.0721C217.598 53.3583 216.879 53.263 216.323 52.5952L212.131 47.5445L213.213 47.1112L217.345 52.0733C217.521 52.2846 217.721 52.3285 217.966 52.2304L218.405 52.0546L219.018 52.79L218.313 53.0721Z" fill="#181818"/>
</svg>
