<svg width="1940" height="55" viewBox="350 25 1934 555" fill="none"
    xmlns="http://www.w3.org/2000/svg">
    <path fill-rule="evenodd" clip-rule="evenodd" d="M1584.93 141.597C1573.11 144.601 1562.5 150.332 1554.52 163.26C1550.48 169.8 1547.07 178.237 1543.89 187.515C1541.98 193.069 1540.18 198.824 1538.37 204.609C1537.14 208.526 1535.91 212.456 1534.64 216.348C1531.52 225.904 1528.19 235.108 1524.2 242.69C1520.23 250.239 1515.48 256.447 1509.39 259.693C1503.25 262.962 1496.1 263.042 1488.73 261.67C1481.36 260.297 1473.48 257.414 1465.72 254.455C1464.86 254.125 1464 253.795 1463.14 253.465C1456.2 250.808 1449.39 248.2 1442.94 246.517C1435.67 244.622 1429.16 243.987 1423.67 245.612C1418.23 247.226 1413.48 251.168 1409.15 256.882C1404.82 262.596 1401.02 269.926 1397.41 278.051C1394.78 283.987 1392.28 290.267 1389.77 296.59C1388.85 298.927 1387.92 301.269 1386.97 303.602C1383.51 312.207 1379.91 320.657 1375.85 327.953C1361.84 353.131 1342.46 364.254 1323.57 375.093C1320.49 376.866 1317.41 378.631 1314.37 380.448C1310.32 382.874 1306.26 385.442 1302.16 388.026C1295.42 392.288 1288.6 396.591 1281.69 400.36C1270.49 406.465 1258.67 411.377 1245.54 412.92C1235.65 414.082 1225 413.316 1214.57 412.566C1211.28 412.329 1208.02 412.094 1204.81 411.921C1191.22 411.192 1178.48 411.557 1167.77 417.003C1157.01 422.479 1148.06 433.199 1138.9 444.622C1138.41 445.235 1137.91 445.85 1137.42 446.466C1128.86 457.159 1120.02 468.197 1109.46 474.795C1098.17 481.84 1085.1 483.754 1071.56 483.666C1062.24 483.606 1052.5 482.587 1042.88 481.579C1038.59 481.13 1034.33 480.684 1030.14 480.326C1023.71 479.777 1017.3 479.423 1010.88 479.069C990.052 477.919 968.928 476.753 945.394 468.848C935.272 465.447 924.613 460.764 914.052 456.124C908.627 453.741 903.228 451.369 897.942 449.188C882.17 442.682 867.349 437.848 854.825 438.636C842.437 439.415 831.991 445.739 822.12 454.53C817.189 458.922 812.446 463.888 807.701 469.024C806.447 470.382 805.19 471.754 803.93 473.13C800.447 476.934 796.937 480.766 793.371 484.411C773.905 504.306 752.203 519.204 725.576 521.282C715.889 522.038 705.503 521.078 695.32 520.137C691.67 519.8 688.045 519.465 684.488 519.212C670.819 518.242 658.016 518.457 647.264 523.758C636.443 529.094 627.455 539.671 618.11 550.694L618.027 550.792C608.862 561.604 599.337 572.84 587.621 578.525C575.775 584.273 561.962 584.256 547.655 582.017C537.4 580.413 526.664 577.622 516.043 574.86C511.878 573.777 507.732 572.699 503.638 571.698C474.205 564.506 447.154 561.24 427.515 577.159C417.626 585.173 409.418 598.191 401.953 613.804C395.58 627.132 389.837 642.153 384.058 657.267C383.078 659.831 382.097 662.397 381.111 664.958C374.34 682.555 367.362 699.925 359.069 713.899C350.796 727.839 341.015 738.749 328.465 742.953C316 747.128 301.211 744.511 286.691 741.195C284.347 740.66 282.009 740.106 279.683 739.555C267.351 736.635 255.346 733.793 244.555 734.176C231.893 734.625 220.825 739.566 210.248 746.446C203.322 750.951 196.757 756.175 190.106 761.468C186.505 764.334 182.879 767.22 179.156 770.023C158.177 785.817 135.373 797.913 107.029 795.355C79.037 792.829 45.866 775.969 29.4543 767.627L12.8699 759.198C11.8852 758.698 11.4927 757.494 11.9932 756.509C12.4936 755.524 13.6976 755.132 14.6823 755.632L31.1384 763.996C47.6841 772.406 80.2375 788.921 107.388 791.371C134.259 793.797 156.061 782.404 176.75 766.827C180.285 764.166 183.825 761.35 187.389 758.515C194.149 753.139 200.997 747.692 208.067 743.093C218.964 736.004 230.745 730.663 244.413 730.178C255.796 729.774 268.435 732.773 280.745 735.694C283.039 736.238 285.321 736.779 287.582 737.296C302.223 740.639 315.941 742.929 327.195 739.16C338.365 735.418 347.513 725.533 355.629 711.857C363.726 698.215 370.595 681.149 377.378 663.521C378.356 660.978 379.333 658.424 380.311 655.867C386.085 640.762 391.895 625.566 398.344 612.078C405.873 596.332 414.393 582.645 424.996 574.051C446.338 556.753 475.317 560.66 504.588 567.813C508.815 568.846 513.041 569.945 517.25 571.039C527.795 573.781 538.228 576.494 548.274 578.065C562.298 580.26 575.126 580.141 585.875 574.926C596.717 569.665 605.717 559.128 615.059 548.108L615.322 547.797C624.43 537.053 633.891 525.892 645.496 520.17C657.282 514.358 671.036 514.247 684.772 515.222C688.531 515.489 692.282 515.836 696.005 516.18C706.074 517.11 715.945 518.021 725.265 517.294C750.489 515.326 771.335 501.212 790.512 481.614C794.028 478.02 797.471 474.26 800.94 470.472C802.209 469.086 803.482 467.697 804.763 466.31C809.524 461.156 814.376 456.07 819.46 451.543C829.621 442.493 840.893 435.504 854.574 434.643C868.117 433.791 883.714 438.991 899.467 445.49C904.945 447.75 910.438 450.164 915.906 452.567C926.354 457.159 936.706 461.709 946.668 465.056C969.64 472.773 990.056 473.903 1010.77 475.049C1017.28 475.41 1023.82 475.772 1030.48 476.341C1034.84 476.713 1039.2 477.17 1043.53 477.624C1053.05 478.622 1062.46 479.608 1071.58 479.666C1084.78 479.751 1096.98 477.871 1107.34 471.402C1117.3 465.179 1125.74 454.646 1134.46 443.762C1134.9 443.215 1135.34 442.667 1135.78 442.119C1144.83 430.835 1154.3 419.373 1165.96 413.438C1177.69 407.471 1191.38 407.195 1205.02 407.927C1208.41 408.109 1211.79 408.352 1215.15 408.593C1225.49 409.335 1235.6 410.061 1245.07 408.948C1257.5 407.487 1268.8 402.827 1279.77 396.847C1286.61 393.122 1293.19 388.963 1299.83 384.765C1303.95 382.166 1308.08 379.552 1312.32 377.016C1315.44 375.147 1318.57 373.347 1321.69 371.555C1340.55 360.712 1358.92 350.151 1372.35 326.008C1376.28 318.946 1379.8 310.696 1383.26 302.106C1384.19 299.818 1385.11 297.503 1386.03 295.182C1388.55 288.834 1391.09 282.443 1393.76 276.429C1397.4 268.212 1401.35 260.549 1405.96 254.466C1410.58 248.383 1415.97 243.724 1422.54 241.777C1429.07 239.842 1436.44 240.688 1443.95 242.646C1450.63 244.389 1457.66 247.083 1464.56 249.728C1465.43 250.059 1466.29 250.39 1467.15 250.718C1474.94 253.689 1482.5 256.44 1489.46 257.737C1496.43 259.034 1502.51 258.82 1507.5 256.162C1512.54 253.48 1516.82 248.128 1520.66 240.828C1524.48 233.562 1527.73 224.63 1530.84 215.106C1532.07 211.324 1533.29 207.428 1534.52 203.519C1536.35 197.672 1538.19 191.793 1540.1 186.215C1543.31 176.872 1546.83 168.09 1551.11 161.158C1559.77 147.141 1571.38 140.914 1583.94 137.721C1590.18 136.134 1596.66 135.293 1603.09 134.606C1604.71 134.432 1606.32 134.269 1607.93 134.106C1612.75 133.619 1617.5 133.138 1622.18 132.414C1647.08 128.562 1669.49 117.853 1680.81 112.433L1692.13 107.016C1693.13 106.54 1694.33 106.961 1694.8 107.957C1695.28 108.954 1694.86 110.148 1693.86 110.625L1682.5 116.062C1671.17 121.483 1648.31 132.419 1622.79 136.367C1618 137.109 1613.1 137.605 1608.25 138.094C1606.66 138.255 1605.08 138.415 1603.51 138.583C1597.12 139.267 1590.87 140.085 1584.93 141.597Z" fill="#FF4259"/>
    <path fill-rule="evenodd" clip-rule="evenodd" d="M1615.03 69.5706C1610.33 74.1522 1606.4 80.425 1603.67 89.2275C1600.91 98.0843 1599.38 109.478 1598.31 121.965C1597.66 129.432 1597.19 137.186 1596.72 144.969C1596.41 150.229 1596.09 155.502 1595.71 160.708C1594.79 173.535 1593.55 185.859 1591.15 196.019C1588.78 206.086 1585.19 214.502 1579.21 218.993C1573.14 223.559 1565.13 223.715 1556.66 221.984C1548.16 220.245 1538.7 216.496 1529.33 212.636C1528.29 212.206 1527.25 211.774 1526.2 211.344C1517.82 207.876 1509.58 204.463 1501.97 202.288C1493.36 199.826 1486.03 199.096 1480.51 201.299C1475.06 203.47 1470.88 208.707 1467.57 216.468C1464.28 224.202 1462.01 234.101 1460.17 245.052C1458.83 253.047 1457.73 261.507 1456.62 270.011C1456.21 273.151 1455.81 276.296 1455.38 279.426C1453.83 290.99 1452.09 302.323 1449.53 312.116C1440.71 345.984 1422.18 361.151 1404.13 375.93C1401.18 378.345 1398.25 380.748 1395.37 383.222C1391.54 386.507 1387.73 389.994 1383.89 393.505C1377.54 399.308 1371.12 405.179 1364.45 410.322C1353.64 418.664 1341.81 425.436 1327.6 427.686C1320.52 428.807 1312.92 428.793 1305.26 428.412C1301.42 428.221 1297.54 427.936 1293.69 427.651L1293.34 427.625C1289.59 427.348 1285.87 427.073 1282.19 426.88C1266.92 426.078 1253.03 426.752 1242.75 434.095C1237.61 437.768 1233.24 443.204 1229.24 449.727C1225.25 456.246 1221.72 463.719 1218.18 471.388C1217.81 472.174 1217.45 472.962 1217.09 473.751C1213.92 480.623 1210.72 487.578 1207.2 493.915C1203.27 500.979 1198.87 507.413 1193.54 512.221C1182.81 521.897 1168.73 524.629 1153.72 524.687C1143.37 524.728 1132.31 523.487 1121.39 522.263C1116.53 521.718 1111.7 521.176 1106.97 520.751C1099.7 520.098 1092.51 519.707 1085.3 519.315C1061.94 518.046 1038.27 516.759 1010.15 506.488C998.06 502.071 985.055 495.954 972.146 489.883C965.504 486.759 958.888 483.647 952.436 480.786C942.879 476.547 933.639 472.833 925.052 470.335C916.45 467.833 908.628 466.589 901.874 467.191C888.521 468.382 878.721 476.872 870.127 488.768C865.837 494.708 861.905 501.416 858.014 508.357C856.985 510.192 855.958 512.045 854.928 513.904C852.08 519.043 849.211 524.222 846.228 529.151C829.964 556.027 809.812 576.399 780.711 579.546C773.483 580.327 765.766 580.036 757.991 579.422C754.364 579.136 750.703 578.777 747.064 578.421L746.266 578.343C742.357 577.961 738.475 577.587 734.647 577.308C719.217 576.182 705.216 576.659 694.843 583.812C689.657 587.389 685.241 592.73 681.174 599.115C677.127 605.471 673.512 612.721 669.838 620.087L669.788 620.188C666.118 627.547 662.387 635.02 658.174 641.591C653.961 648.161 649.18 653.97 643.334 657.931C631.609 665.874 616.202 665.993 599.821 663.19C588.05 661.175 575.438 657.579 562.951 654.019C558.052 652.623 553.173 651.232 548.371 649.944C531.201 645.339 514.858 641.994 500.603 642.532C486.417 643.068 474.477 647.436 465.804 658.116C456.998 668.957 451.348 686.515 447.212 707.579C443.685 725.535 441.306 745.755 438.916 766.069C438.511 769.514 438.105 772.961 437.694 776.401C434.863 800.054 431.748 823.362 426.284 842.142C420.854 860.806 412.925 875.656 399.982 881.523C393.511 884.456 386.001 885.039 378.087 884.4C370.167 883.761 361.669 881.883 353.142 879.744C350.416 879.06 347.693 878.351 344.98 877.645C339.147 876.127 333.362 874.621 327.699 873.403C319.418 871.621 311.607 870.505 304.649 870.888C290.854 871.649 279.997 878.346 270.145 887.665C265.214 892.331 260.568 897.621 255.947 903.113C254.559 904.762 253.17 906.434 251.776 908.111C248.555 911.988 245.309 915.894 241.994 919.625C222.932 941.078 200.778 957.671 168.606 954.602C152.675 953.082 134.42 946.741 117.692 939.477C100.941 932.204 85.5551 923.931 75.3412 918.439L54.89 907.442C53.9172 906.919 53.5526 905.706 54.0757 904.734C54.5988 903.761 55.8115 903.396 56.7844 903.919L77.2185 914.907C87.4388 920.403 102.697 928.606 119.285 935.808C135.905 943.024 153.694 949.161 168.986 950.62C199.258 953.508 220.256 938.067 239.004 916.968C242.273 913.288 245.45 909.466 248.651 905.613C250.055 903.924 251.463 902.229 252.887 900.537C257.53 895.019 262.294 889.587 267.396 884.76C277.613 875.094 289.324 867.727 304.429 866.894C311.921 866.481 320.144 867.686 328.54 869.492C334.287 870.729 340.214 872.271 346.091 873.801C348.784 874.501 351.466 875.199 354.116 875.864C362.612 877.995 370.839 879.802 378.409 880.413C385.984 881.024 392.726 880.42 398.331 877.88C409.538 872.8 417.052 859.555 422.443 841.024C427.801 822.608 430.886 799.621 433.722 775.925C434.131 772.504 434.535 769.069 434.94 765.63C437.328 745.327 439.728 724.929 443.287 706.808C447.435 685.681 453.224 667.26 462.699 655.594C472.305 643.766 485.488 639.1 500.452 638.535C515.347 637.973 532.182 641.46 549.407 646.08C554.354 647.407 559.321 648.824 564.268 650.234C576.672 653.77 588.952 657.271 600.496 659.247C616.653 662.012 630.711 661.65 641.091 654.619C646.297 651.092 650.729 645.791 654.806 639.432C658.883 633.075 662.518 625.802 666.208 618.403L666.309 618.2C669.946 610.908 673.64 603.5 677.8 596.967C681.999 590.374 686.757 584.53 692.572 580.519C704.204 572.498 719.514 572.193 734.938 573.318C738.822 573.602 742.749 573.98 746.656 574.362L747.449 574.44C751.095 574.797 754.719 575.151 758.306 575.435C766.005 576.042 773.427 576.31 780.281 575.569C807.505 572.625 826.762 553.593 842.806 527.08C845.746 522.222 848.56 517.143 851.396 512.026C852.433 510.153 853.474 508.275 854.525 506.401C858.428 499.439 862.452 492.562 866.885 486.426C875.737 474.172 886.449 464.551 901.519 463.207C908.976 462.542 917.342 463.926 926.169 466.494C935.012 469.066 944.441 472.864 954.057 477.129C960.697 480.074 967.408 483.231 974.092 486.376C986.889 492.396 999.59 498.372 1011.52 502.731C1039.03 512.779 1061.94 514.028 1085.18 515.294C1092.48 515.692 1099.81 516.092 1107.33 516.767C1112.26 517.21 1117.21 517.765 1122.12 518.317C1132.93 519.53 1143.59 520.727 1153.7 520.687C1168.33 520.63 1181.22 517.953 1190.86 509.251C1195.72 504.87 1199.87 498.872 1203.7 491.971C1207.15 485.776 1210.28 478.963 1213.46 472.068C1213.82 471.283 1214.18 470.498 1214.54 469.711C1218.08 462.057 1221.7 454.383 1225.83 447.638C1229.96 440.897 1234.66 434.954 1240.42 430.84C1251.95 422.611 1267.15 422.084 1282.4 422.885C1286.13 423.081 1289.89 423.359 1293.62 423.636L1293.98 423.662C1297.84 423.948 1301.68 424.228 1305.46 424.416C1313.03 424.793 1320.3 424.792 1326.97 423.736C1340.26 421.631 1351.47 415.285 1362.01 407.156C1368.58 402.084 1374.74 396.449 1380.97 390.75C1384.83 387.214 1388.73 383.654 1392.76 380.188C1395.72 377.643 1398.71 375.193 1401.69 372.753C1419.67 358.006 1437.18 343.646 1445.66 311.107C1448.15 301.569 1449.86 290.446 1451.42 278.892C1451.84 275.807 1452.24 272.689 1452.65 269.566C1453.75 261.037 1454.87 252.464 1456.22 244.389C1458.08 233.361 1460.41 223.083 1463.89 214.902C1467.36 206.749 1472.12 200.335 1479.03 197.583C1485.86 194.861 1494.3 195.934 1503.07 198.442C1510.91 200.684 1519.39 204.192 1527.73 207.645C1528.77 208.078 1529.82 208.509 1530.85 208.937C1540.27 212.817 1549.39 216.414 1557.47 218.065C1565.58 219.723 1572.13 219.312 1576.81 215.796C1581.59 212.205 1584.92 205.023 1587.26 195.103C1589.57 185.277 1590.81 173.228 1591.72 160.422C1592.09 155.32 1592.41 150.081 1592.72 144.828C1593.2 136.986 1593.68 129.114 1594.32 121.623C1595.4 109.09 1596.96 97.334 1599.85 88.0409C1602.75 78.6934 1607 71.8156 1612.23 66.7073C1617.47 61.6035 1623.6 58.3553 1630.13 56.1319C1636.65 53.9154 1643.63 52.7021 1650.56 51.6976C1652.32 51.4437 1654.07 51.2034 1655.81 50.9643C1661 50.25 1666.12 49.5463 1671.1 48.5182C1697.57 43.0523 1719.47 28.4623 1730.58 21.0567L1741.67 13.6557C1742.59 13.0428 1743.83 13.2909 1744.45 14.2098C1745.06 15.1287 1744.81 16.3705 1743.89 16.9834L1732.75 24.4176C1721.64 31.8257 1699.18 46.8036 1671.91 52.4355C1666.79 53.4933 1661.48 54.2231 1656.25 54.942C1654.53 55.1776 1652.83 55.4119 1651.14 55.6563C1644.24 56.6551 1637.57 57.8278 1631.42 59.9189C1625.29 62.0033 1619.73 64.9843 1615.03 69.5706Z" fill="#3881C4"/>
</svg>
