<?xml version="1.0" standalone="no"?><svg xmlns="http://www.w3.org/2000/svg" viewBox="0 0 1440 320"><path fill="#00cba9" fill-opacity="0.4" d="M0,64L12,80C24,96,48,128,72,128C96,128,120,96,144,112C168,128,192,192,216,224C240,256,264,256,288,218.7C312,181,336,107,360,80C384,53,408,75,432,101.3C456,128,480,160,504,186.7C528,213,552,235,576,224C600,213,624,171,648,138.7C672,107,696,85,720,80C744,75,768,85,792,96C816,107,840,117,864,128C888,139,912,149,936,176C960,203,984,245,1008,261.3C1032,277,1056,267,1080,240C1104,213,1128,171,1152,160C1176,149,1200,171,1224,165.3C1248,160,1272,128,1296,128C1320,128,1344,160,1368,144C1392,128,1416,64,1428,32L1440,0L1440,320L1428,320C1416,320,1392,320,1368,320C1344,320,1320,320,1296,320C1272,320,1248,320,1224,320C1200,320,1176,320,1152,320C1128,320,1104,320,1080,320C1056,320,1032,320,1008,320C984,320,960,320,936,320C912,320,888,320,864,320C840,320,816,320,792,320C768,320,744,320,720,320C696,320,672,320,648,320C624,320,600,320,576,320C552,320,528,320,504,320C480,320,456,320,432,320C408,320,384,320,360,320C336,320,312,320,288,320C264,320,240,320,216,320C192,320,168,320,144,320C120,320,96,320,72,320C48,320,24,320,12,320L0,320Z"></path></svg>